<?xml version="1.0" standalone="no"?>
<!DOCTYPE svg PUBLIC "-//W3C//DTD SVG 20010904//EN"
 "http://www.w3.org/TR/2001/REC-SVG-20010904/DTD/svg10.dtd">
<svg version="1.0" xmlns="http://www.w3.org/2000/svg"
 width="610.000000pt" height="610.000000pt" viewBox="0 0 610.000000 610.000000"
 preserveAspectRatio="xMidYMid meet">
<metadata>
Created by potrace 1.11, written by Peter Selinger 2001-2013
</metadata>
<g transform="translate(0.000000,610.000000) scale(0.100000,-0.100000)"
fill="#000000" stroke="none">
<path d="M887 5544 c-1 -1 -29 -4 -62 -7 -194 -16 -354 -141 -432 -338 -16
-40 -18 -111 -23 -774 l-5 -730 -25 -50 c-47 -97 -135 -156 -249 -170 -25 -3
-47 -8 -50 -11 -3 -3 -7 -187 -8 -408 -2 -304 1 -407 10 -419 7 -8 34 -17 62
-20 125 -13 219 -95 254 -222 7 -27 11 -261 11 -730 l1 -690 24 -73 c31 -91
64 -143 132 -209 61 -59 150 -106 241 -127 89 -20 921 -20 950 0 18 12 19 30
19 308 0 260 -2 297 -16 310 -13 11 -58 15 -211 18 -187 3 -196 4 -229 27 -68
49 -65 19 -67 806 -1 391 -4 719 -7 731 -32 124 -122 222 -240 262 l-57 19 43
12 c88 26 184 107 222 187 9 18 15 35 14 36 -1 2 4 14 12 28 11 21 13 150 14
745 l0 720 22 41 c37 69 66 77 287 79 164 1 190 3 201 18 17 24 18 589 0 613
-11 15 -50 17 -424 18 -227 1 -413 0 -414 0z"/>
<path d="M4379 5529 c-14 -14 -16 -52 -15 -312 1 -224 4 -299 14 -309 9 -9 62
-13 195 -13 190 -1 214 -5 259 -38 53 -39 52 -28 53 -797 1 -569 4 -723 15
-755 16 -50 53 -110 94 -154 30 -32 154 -100 186 -102 8 0 -7 -7 -34 -15 -113
-35 -204 -124 -242 -237 -16 -48 -18 -114 -18 -762 -1 -690 -2 -711 -21 -749
-39 -77 -51 -81 -273 -84 -179 -3 -198 -5 -213 -22 -14 -17 -16 -56 -16 -307
0 -237 2 -291 14 -305 14 -15 55 -17 454 -16 480 0 512 3 624 58 159 78 268
245 274 419 2 36 3 359 4 716 l2 650 24 52 c40 90 131 156 232 169 30 4 59 11
65 16 14 10 18 805 5 826 -4 8 -30 16 -57 19 -132 13 -235 103 -262 228 -7 33
-11 280 -11 720 0 369 -2 679 -4 690 -28 124 -69 203 -145 279 -66 66 -168
121 -257 137 -37 7 -223 12 -495 13 -389 1 -437 -1 -451 -15z"/>
<path d="M1871 4764 c-165 -28 -294 -148 -332 -309 -7 -34 -11 -203 -11 -530
0 -461 1 -480 19 -495 17 -13 76 -15 459 -15 241 0 445 4 452 8 9 6 12 83 12
328 0 202 4 327 10 340 10 18 27 19 570 19 392 0 561 -3 566 -11 9 -14 9 -628
0 -656 -4 -11 -13 -24 -22 -27 -8 -3 -160 -6 -338 -6 -397 -1 -436 -8 -548
-102 -53 -44 -98 -111 -124 -183 -16 -45 -18 -96 -19 -502 -2 -369 1 -456 12
-472 13 -19 28 -20 459 -20 407 0 447 2 462 17 16 16 17 46 17 301 0 252 1
287 16 305 17 20 26 21 362 22 326 1 348 3 410 23 67 23 131 63 174 110 35 38
83 141 91 197 4 27 7 324 7 659 -1 651 -2 668 -52 770 -33 69 -87 128 -157
169 -120 72 -45 68 -1300 70 -790 1 -1149 -2 -1195 -10z"/>
<path d="M2625 1929 c-64 -11 -65 -13 -65 -305 l0 -263 25 -19 c23 -18 44 -19
456 -19 429 0 431 0 457 22 l25 22 0 256 c0 222 -2 259 -17 281 -11 17 -26 26
-44 27 -195 4 -808 2 -837 -2z"/>
</g>
</svg>
